<?xml version="1.0" encoding="UTF-8"?>
<svg version="1.1" xmlns="http://www.w3.org/2000/svg" width="451" height="186">
<path d="M0 0 C2.55924874 1.19060702 5.02039886 2.41445245 7.5 3.75 C8.15097656 4.08515625 8.80195312 4.4203125 9.47265625 4.765625 C13.67884996 7.00892831 16.70065984 9.50258625 20 13 C21.28959633 13.988939 22.60063933 14.95095316 23.9375 15.875 C27.38320841 18.38803546 29.96187651 21.11196615 32.63671875 24.4140625 C34.07565438 26.18689927 34.07565438 26.18689927 36.5 28 C39.24269517 30.19415614 41.29996457 32.59922972 43.54296875 35.28515625 C46.21181332 38.42623605 49.20968966 41.23669667 52.171875 44.09765625 C56.35564921 48.19255944 59.81603266 52.06998605 63 57 C65.59451001 60.06519545 68.30395867 63.02418079 71 66 C72.14893491 67.3097858 73.29490141 68.62218302 74.4375 69.9375 C80.13270367 76.45375134 85.85999837 82.89813503 92 89 C92.75539062 89.79019531 93.51078125 90.58039063 94.2890625 91.39453125 C100.92119601 98.25956576 108.07732332 103.71821555 116 109 C115.67 109.99 115.34 110.98 115 112 C108.07 109.03 108.07 109.03 101 106 C101 105.34 101 104.68 101 104 C100.17242187 103.74476562 99.34484375 103.48953125 98.4921875 103.2265625 C94.56559849 101.84742497 90.87742537 100.16394698 87.125 98.375 C86.43664062 98.05015625 85.74828125 97.7253125 85.0390625 97.390625 C83.35794781 96.59676528 81.67877079 95.79880442 80 95 C80 94.34 80 93.68 80 93 C79.14148438 92.73832031 78.28296875 92.47664063 77.3984375 92.20703125 C69.4154238 89.37168501 62.01845414 84.7642603 54.91015625 80.19140625 C52.00075894 78.37675149 48.99260346 76.74996329 45.98046875 75.11328125 C44.2738097 74.1539167 42.62900605 73.08600403 41 72 C41.43570313 72.4846875 41.87140625 72.969375 42.3203125 73.46875 C45.40436982 76.93998335 48.35296545 80.4142755 51.0625 84.1875 C53.70131343 87.78077786 56.50169119 90.24601221 60 93 C60.78375 93.804375 61.5675 94.60875 62.375 95.4375 C65.12730895 98.12427778 68.01738405 100.32768891 71.1328125 102.5703125 C73 104 73 104 74.50390625 105.5234375 C78.7553413 109.71937078 84.66547967 112.46610284 90 115 C90 115.99 90 116.98 90 118 C87.52009745 117.69262339 85.04119265 117.37935917 82.5625 117.0625 C81.85544922 116.97548828 81.14839844 116.88847656 80.41992188 116.79882812 C75.11328125 116.11328125 75.11328125 116.11328125 74 115 C71.6434384 114.56732481 69.29950234 114.1885228 66.9296875 113.84375 C65.85800827 113.68295959 65.85800827 113.68295959 64.76467896 113.5189209 C62.46867849 113.17540089 60.17186857 112.83766177 57.875 112.5 C56.34890256 112.27250922 54.82286014 112.04464909 53.296875 111.81640625 C46.86749358 110.85704989 40.43584102 109.91507819 34 109 C34.5775 109.33773437 35.155 109.67546875 35.75 110.0234375 C36.4925 110.46945313 37.235 110.91546875 38 111.375 C38.7425 111.81585938 39.485 112.25671875 40.25 112.7109375 C40.8275 113.13632813 41.405 113.56171875 42 114 C42 114.66 42 115.32 42 116 C42.67933594 116.26683594 43.35867187 116.53367187 44.05859375 116.80859375 C48.65188553 118.66909042 53.18092342 120.67769229 57.72265625 122.66015625 C60.18484329 123.66674761 62.40757124 124.47634232 65 125 C65 125.66 65 126.32 65 127 C68.39436356 127.67429967 71.79070193 128.3380828 75.1875 129 C76.14720703 129.19078125 77.10691406 129.3815625 78.09570312 129.578125 C79.02705078 129.75859375 79.95839844 129.9390625 80.91796875 130.125 C82.19837036 130.37636719 82.19837036 130.37636719 83.50463867 130.6328125 C86.04045103 131.00595229 88.44081397 131.06412996 91 131 C90.67 132.32 90.34 133.64 90 135 C88.02 135.33 86.04 135.66 84 136 C84 136.66 84 137.32 84 138 C81.48045712 138.9618423 78.95946363 139.91954241 76.4375 140.875 C75.73302734 141.14441406 75.02855469 141.41382813 74.30273438 141.69140625 C69.91200501 143.35057587 65.53106385 144.77345709 61 146 C61 146.66 61 147.32 61 148 C56.05 149.65 51.1 151.3 46 153 C64.07300915 156.61460183 86.43066716 154.28466642 103 146 C102.13023608 150.48286274 99.56623839 153.2102424 96.625 156.5625 C96.13 157.13935547 95.635 157.71621094 95.125 158.31054688 C92.83130737 160.96914516 90.50326091 163.535695 88 166 C88.80824219 165.66226563 89.61648437 165.32453125 90.44921875 164.9765625 C91.51785156 164.53054687 92.58648437 164.08453125 93.6875 163.625 C94.74324219 163.18414062 95.79898438 162.74328125 96.88671875 162.2890625 C99.58356657 161.17242538 102.28716264 160.07708199 105 159 C105 158.34 105 157.68 105 157 C107.97 155.35 110.94 153.7 114 152 C109.82290295 163.83510832 100.870941 172.23100975 90 178 C89.34 178 88.68 178 88 178 C88 178.66 88 179.32 88 180 C79.24870754 183.06678584 71.02952123 185.48654485 61.6875 185.4375 C60.97730713 185.43492187 60.26711426 185.43234375 59.53540039 185.4296875 C55.89699564 185.324341 53.09501302 184.98112658 50 183 C50 181.68 50 180.36 50 179 C48.87464844 178.97421875 47.74929687 178.9484375 46.58984375 178.921875 C35.54929128 178.55562939 22.66160373 178.05000424 13 172 C12.125 169.5 12.125 169.5 12 167 C12.66 166.34 13.32 165.68 14 165 C13.18917969 164.81824219 12.37835938 164.63648438 11.54296875 164.44921875 C4.3080982 162.80684418 -2.86061104 161.01734237 -10 159 C-10 158.34 -10 157.68 -10 157 C-10.66 156.91105469 -11.32 156.82210937 -12 156.73046875 C-15.9561151 155.76719593 -19.3628792 154.11428401 -23 152.3125 C-23.69867188 151.98572266 -24.39734375 151.65894531 -25.1171875 151.32226562 C-29.97184953 148.9269937 -32.90472787 146.46827222 -36 142 C-36.125 139.3125 -36.125 139.3125 -35 137 C-29.50290862 132.72448448 -23.46102518 132.80615087 -16.75 132.8125 C-15.94167725 132.81258057 -15.13335449 132.81266113 -14.30053711 132.81274414 C11.31977316 133.04117488 11.31977316 133.04117488 21.06762695 135.52734375 C23.15307181 136.03744119 24.96524334 136.11389967 27.109375 136.09765625 C27.86347656 136.09443359 28.61757812 136.09121094 29.39453125 136.08789062 C30.17183594 136.07951172 30.94914062 136.07113281 31.75 136.0625 C32.93916016 136.05573242 32.93916016 136.05573242 34.15234375 136.04882812 C36.10159508 136.03708565 38.05080738 136.01915146 40 136 C39.41210693 135.90501221 38.82421387 135.81002441 38.21850586 135.7121582 C17.07080648 132.23737776 -7.60446925 127.20582184 -23 111 C-23.928125 110.2265625 -23.928125 110.2265625 -24.875 109.4375 C-26 108 -26 108 -25.75 105.875 C-25 104 -25 104 -24 103 C-22.31816052 102.76712992 -20.6287584 102.58735834 -18.9375 102.4375 C-17.55884766 102.31181641 -17.55884766 102.31181641 -16.15234375 102.18359375 C-15.44207031 102.12300781 -14.73179688 102.06242187 -14 102 C-14.96421875 101.54109375 -15.9284375 101.0821875 -16.921875 100.609375 C-18.19812733 99.99001725 -19.47415737 99.37020128 -20.75 98.75 C-21.38421875 98.44964844 -22.0184375 98.14929688 -22.671875 97.83984375 C-26.44873721 95.99075496 -29.16581255 94.08389559 -32 91 C-33.19037479 90.10072123 -34.39914272 89.22527547 -35.625 88.375 C-42.46081271 83.33471033 -48.82185127 77.44003677 -53 70 C-53.680625 69.01 -54.36125 68.02 -55.0625 67 C-58.51869686 61.64846937 -59.2625379 57.58871173 -59.55859375 51.3046875 C-59 49 -59 49 -56.80859375 47.2265625 C-48.16901956 43.45350785 -38.81445424 46.43400833 -30.40625 49.578125 C-26.97351635 51.0110551 -23.99537234 52.5730333 -20.94921875 54.6875 C-18.57231091 56.28798304 -16.09442564 57.59645249 -13.5625 58.9375 C-9.2230119 61.27230065 -5.14555692 63.82714121 -1.08203125 66.609375 C1.8595489 68.57410771 4.90557792 70.28819204 8 72 C8 72.66 8 73.32 8 74 C9.28777344 74.39832031 9.28777344 74.39832031 10.6015625 74.8046875 C14.02910808 76.01023801 17.14173798 77.47244386 20.375 79.125 C21.43460937 79.66382812 22.49421875 80.20265625 23.5859375 80.7578125 C24.38257812 81.16773437 25.17921875 81.57765625 26 82 C25.25234375 81.48050781 24.5046875 80.96101563 23.734375 80.42578125 C22.74953125 79.72839844 21.7646875 79.03101562 20.75 78.3125 C19.77546875 77.62800781 18.8009375 76.94351563 17.796875 76.23828125 C15.04265025 74.03413211 13.13963058 71.78426287 11 69 C10.01 68.21625 9.02 67.4325 8 66.625 C4.53872201 63.59638176 3.13020203 61.03216813 1 57 C0.34 56.34 -0.32 55.68 -1 55 C-1.125 51.875 -1.125 51.875 -1 49 C1.62315032 47.68842484 3.23033436 48.10350012 6.125 48.4375 C7.03507812 48.53933594 7.94515625 48.64117187 8.8828125 48.74609375 C9.58148438 48.82988281 10.28015625 48.91367187 11 49 C10.54109375 48.63648438 10.0821875 48.27296875 9.609375 47.8984375 C5.58429633 44.60057892 2.7572467 41.4686412 0 37 C-0.64324219 36.24976563 -1.28648438 35.49953125 -1.94921875 34.7265625 C-4.21099414 31.71947827 -5.3557348 28.97097054 -6.625 25.4375 C-8.16902829 21.08039281 -8.16902829 21.08039281 -10.125 16.90625 C-11.84821852 13.15209536 -11.5470258 9.02454698 -11 5 C-7.85635845 -0.13461453 -5.78631668 -1.62144039 0 0 Z M84 167 C83.67 167.66 83.34 168.32 83 169 C83.66 169 84.32 169 85 169 C84.67 168.34 84.34 167.68 84 167 Z " fill="#C692D0" transform="translate(59,1)"/>
<path d="M0 0 C2.0859375 1.140625 2.0859375 1.140625 4 3 C5.31156424 11.03462188 4.07864782 18.55993445 1 26 C0.34 26 -0.32 26 -1 26 C-1.2784375 27.4540625 -1.2784375 27.4540625 -1.5625 28.9375 C-3.89344968 37.06299361 -11.0237779 43.35074446 -17 49 C-16.30132812 48.90460937 -15.60265625 48.80921875 -14.8828125 48.7109375 C-13.97273438 48.60007813 -13.06265625 48.48921875 -12.125 48.375 C-11.22007812 48.25898437 -10.31515625 48.14296875 -9.3828125 48.0234375 C-8.20332031 48.01183594 -8.20332031 48.01183594 -7 48 C-6.34 48.66 -5.68 49.32 -5 50 C-5.4817722 57.226583 -8.9215593 61.16338981 -14 66 C-14.825 66.825 -15.65 67.65 -16.5 68.5 C-17.325 69.325 -18.15 70.15 -19 71 C-19.70125 71.763125 -20.4025 72.52625 -21.125 73.3125 C-25.41650323 77.32412259 -30.20627101 80.61668514 -35 84 C-33.96359375 83.44570312 -32.9271875 82.89140625 -31.859375 82.3203125 C-30.48959816 81.58851391 -29.11980567 80.85674462 -27.75 80.125 C-26.72712891 79.57779297 -26.72712891 79.57779297 -25.68359375 79.01953125 C-24.68779297 78.48779297 -24.68779297 78.48779297 -23.671875 77.9453125 C-23.02927734 77.60145508 -22.38667969 77.25759766 -21.72460938 76.90332031 C-20.40184645 76.21048016 -19.05661547 75.56039565 -17.703125 74.9296875 C-15.94750073 74.08240082 -15.94750073 74.08240082 -14.69140625 72.63671875 C-12.12141942 70.14982618 -9.03321498 68.5540365 -5.9375 66.8125 C-5.30005859 66.44447266 -4.66261719 66.07644531 -4.00585938 65.69726562 C0.74312964 63 0.74312964 63 3 63 C3 62.34 3 61.68 3 61 C5.6226232 59.66180502 8.24786599 58.3292849 10.875 57 C11.62136719 56.6184375 12.36773437 56.236875 13.13671875 55.84375 C14.20986328 55.30234375 14.20986328 55.30234375 15.3046875 54.75 C15.96452637 54.41484375 16.62436523 54.0796875 17.30419922 53.734375 C19 53 19 53 21 53 C21 52.34 21 51.68 21 51 C22.56020867 50.34865075 24.12328579 49.70417036 25.6875 49.0625 C26.99267578 48.52302734 26.99267578 48.52302734 28.32421875 47.97265625 C34.72118229 45.64733666 41.25339423 45.34770386 48 46 C51.25 47.5625 51.25 47.5625 53 50 C54.62897023 57.8190571 49.90193037 66.25320685 45.8125 72.75 C45.214375 73.4925 44.61625 74.235 44 75 C43.34 75 42.68 75 42 75 C41.74347656 75.58007812 41.48695313 76.16015625 41.22265625 76.7578125 C37.65421346 83.30185775 31.19477126 87.83721209 24.98046875 91.67578125 C22.99261447 92.8965165 22.99261447 92.8965165 21.625 94.46875 C19.30150905 96.6581934 16.67729442 97.80130915 13.8125 99.1875 C12.18248047 99.98220703 12.18248047 99.98220703 10.51953125 100.79296875 C9.68808594 101.19128906 8.85664063 101.58960937 8 102 C8.71027344 102.06058594 9.42054688 102.12117188 10.15234375 102.18359375 C11.53099609 102.30927734 11.53099609 102.30927734 12.9375 102.4375 C13.85402344 102.51871094 14.77054688 102.59992188 15.71484375 102.68359375 C18 103 18 103 19 104 C19.36201507 106.99165228 19.37693132 108.47543725 17.59375 110.95703125 C10.98001131 116.81808699 3.73414147 120.50628063 -4.22753906 124.17626953 C-5.63087232 124.82845223 -7.01794764 125.5156054 -8.3984375 126.21484375 C-19.8961783 131.87282292 -33.36486666 134.50432167 -46 136 C-34.80414812 136.27123194 -24.09465038 135.44043528 -13 134 C-5.56635222 133.1293926 1.83421176 132.8789014 9.3125 132.8125 C10.16110596 132.79944824 11.00971191 132.78639648 11.8840332 132.77294922 C18.00842949 132.76450593 23.44049228 133.08036921 28.5 136.875 C30 139 30 139 30 140.9375 C27.05991022 147.00143517 22.90685816 149.47965703 17.0625 152.25 C16.35931641 152.600625 15.65613281 152.95125 14.93164062 153.3125 C11.31292569 155.07607242 8.03339577 156.46326632 4 157 C4 157.66 4 158.32 4 159 C-3.92 160.98 -11.84 162.96 -20 165 C-19.34 165.33 -18.68 165.66 -18 166 C-18 167.65 -18 169.3 -18 171 C-30.69376576 178.07921552 -42.81687069 178.40056955 -57 178 C-56.505 180.475 -56.505 180.475 -56 183 C-60.23829051 185.04919289 -64.17454799 185.42055578 -68.8125 185.4375 C-69.54718506 185.44136719 -70.28187012 185.44523438 -71.03881836 185.44921875 C-79.18726195 185.28237422 -86.43605941 182.85047559 -94 180 C-94 179.34 -94 178.68 -94 178 C-94.73863281 177.71898437 -95.47726562 177.43796875 -96.23828125 177.1484375 C-106.87649651 172.72462522 -113.72725911 164.40911134 -120 155 C-120 154.01 -120 153.02 -120 152 C-117.2230075 153.28586827 -115.07086342 154.708259 -112.75 156.6875 C-106.58838294 161.44981853 -99.1507155 164.06681816 -92 167 C-93.010625 166.195625 -94.02125 165.39125 -95.0625 164.5625 C-98.767017 161.41403626 -101.56880305 157.87276591 -104.421875 153.953125 C-106.02945608 151.76472888 -106.02945608 151.76472888 -109 150 C-108.505 148.02 -108.505 148.02 -108 146 C-107.67 146.66 -107.34 147.32 -107 148 C-90.557818 154.43536222 -69.2585122 156.45170244 -52 153 C-59.425 150.525 -59.425 150.525 -67 148 C-67 147.34 -67 146.68 -67 146 C-67.57105469 145.84144531 -68.14210938 145.68289062 -68.73046875 145.51953125 C-88.03571429 139.96428571 -88.03571429 139.96428571 -92 136 C-93.64991582 135.29289322 -95.31562256 134.62056011 -97 134 C-97 133.34 -97 132.68 -97 132 C-93.79199093 131.35254908 -90.58353661 130.70733107 -87.375 130.0625 C-86.01955078 129.78889648 -86.01955078 129.78889648 -84.63671875 129.50976562 C-80.10100762 128.59931266 -75.57062353 127.7212778 -71 127 C-71 126.34 -71 125.68 -71 125 C-70.07058594 124.68546875 -69.14117187 124.3709375 -68.18359375 124.046875 C-61.76321457 121.82417856 -55.81066803 119.5656372 -50 116 C-49.34 116 -48.68 116 -48 116 C-48 115.34 -48 114.68 -48 114 C-46.25 112.7109375 -46.25 112.7109375 -44 111.375 C-43.2575 110.92898437 -42.515 110.48296875 -41.75 110.0234375 C-40.88375 109.51683594 -40.88375 109.51683594 -40 109 C-49.28126058 110.28250146 -58.54810674 111.6640533 -67.8125 113.0625 C-69.5756958 113.32401855 -69.5756958 113.32401855 -71.37451172 113.59082031 C-72.47424316 113.75807617 -73.57397461 113.92533203 -74.70703125 114.09765625 C-75.7019458 114.24726807 -76.69686035 114.39687988 -77.72192383 114.55102539 C-79.95761553 114.77193838 -79.95761553 114.77193838 -81 116 C-83.52195967 116.39943176 -86.02963656 116.75079848 -88.5625 117.0625 C-89.27341797 117.15337891 -89.98433594 117.24425781 -90.71679688 117.33789062 C-92.47738403 117.56239503 -94.23863478 117.78168397 -96 118 C-96 117.01 -96 116.02 -96 115 C-93.73103368 113.68417937 -91.45996813 112.37224764 -89.1875 111.0625 C-88.54490234 110.68931641 -87.90230469 110.31613281 -87.24023438 109.93164062 C-84.51683576 108.36533365 -81.98891878 106.99630626 -79 106 C-78.505 104.515 -78.505 104.515 -78 103 C-75.671875 101.1328125 -75.671875 101.1328125 -72.75 99.125 C-65.79846347 94.18645667 -60.92557402 88.76485316 -55.76953125 82.01171875 C-55.18558594 81.34785156 -54.60164063 80.68398437 -54 80 C-53.34 80 -52.68 80 -52 80 C-50.42726432 77.1575146 -50.42726432 77.1575146 -50 74 C-51.13179688 74.6496875 -52.26359375 75.299375 -53.4296875 75.96875 C-54.91133076 76.81272401 -56.39310858 77.65646181 -57.875 78.5 C-58.99455078 79.14388672 -58.99455078 79.14388672 -60.13671875 79.80078125 C-60.85214844 80.20683594 -61.56757813 80.61289063 -62.3046875 81.03125 C-62.96452637 81.40830078 -63.62436523 81.78535156 -64.30419922 82.17382812 C-66 83 -66 83 -68 83 C-68 83.66 -68 84.32 -68 85 C-70.6226232 86.33819498 -73.24786599 87.6707151 -75.875 89 C-76.62136719 89.3815625 -77.36773437 89.763125 -78.13671875 90.15625 C-78.85214844 90.5171875 -79.56757813 90.878125 -80.3046875 91.25 C-80.96452637 91.58515625 -81.62436523 91.9203125 -82.30419922 92.265625 C-84 93 -84 93 -86 93 C-86 93.66 -86 94.32 -86 95 C-86.57331055 95.27150879 -87.14662109 95.54301758 -87.73730469 95.82275391 C-90.40882627 97.0888601 -93.07954244 98.35665108 -95.75 99.625 C-97.1875061 100.30743774 -97.1875061 100.30743774 -98.65405273 101.00366211 C-104.72564205 103.89399107 -110.75233324 106.84665732 -116.72265625 109.94140625 C-118.82125915 110.91691463 -120.73961118 111.53539352 -123 112 C-122.375 110.125 -122.375 110.125 -121 108 C-119 107.33333333 -117 106.66666667 -115 106 C-114.7009375 105.39671875 -114.401875 104.7934375 -114.09375 104.171875 C-112.69754134 101.39940351 -110.96088584 100.11963405 -108.5 98.25 C-107.7059375 97.63640625 -106.911875 97.0228125 -106.09375 96.390625 C-104 95 -104 95 -102 95 C-101.73574219 94.39671875 -101.47148437 93.7934375 -101.19921875 93.171875 C-99.94244926 90.8957713 -98.84559838 89.83181567 -96.8125 88.25 C-91.90741441 84.21352332 -87.95722087 79.44652609 -84 74.5 C-82.36351977 72.45439971 -80.68231301 70.51355569 -78.9375 68.5625 C-75.62148591 64.81148191 -72.56119502 60.89546651 -69.5 56.9375 C-66.09146405 52.54372468 -62.65713935 48.41120651 -58.6171875 44.57421875 C-54.61728607 40.6805949 -51.04210068 36.3437614 -47.625 31.9375 C-44.72566048 28.69300101 -41.59828506 26.26393232 -38.1328125 23.65625 C-35.53064514 21.6355193 -33.29746982 19.35792956 -31 17 C-29.78345123 15.88194642 -28.5535977 14.77823884 -27.3125 13.6875 C-26.73113281 13.17574219 -26.14976562 12.66398438 -25.55078125 12.13671875 C-24 11 -24 11 -22 11 C-21.67 10.01 -21.34 9.02 -21 8 C-6.11320755 -2.95120364 -6.11320755 -2.95120364 0 0 Z " fill="#C692D0" transform="translate(398,1)"/>
<path d="M0 0 C2.81023295 0.96350844 4.89257906 1.91200625 7.203125 3.8046875 C10.48777495 6.38286246 13.91449014 8.36159845 17.5625 10.375 C18.26705322 10.7671167 18.97160645 11.1592334 19.69750977 11.56323242 C27.20875879 15.71514917 34.81330263 19.641297 42.6875 23.0625 C48.4018866 25.55018378 53.81593597 28.54395732 59 32 C59 32.66 59 33.32 59 34 C59.67804688 33.55269531 60.35609375 33.10539062 61.0546875 32.64453125 C67.20345923 28.65038452 73.36647943 25.11487053 80 22 C81.13695312 21.45859375 82.27390625 20.9171875 83.4453125 20.359375 C92.7140771 16 92.7140771 16 95 16 C95 15.34 95 14.68 95 14 C97.60295276 12.68504458 100.20728033 11.37295014 102.8125 10.0625 C103.91948242 9.50272461 103.91948242 9.50272461 105.04882812 8.93164062 C105.76103516 8.57392578 106.47324219 8.21621094 107.20703125 7.84765625 C108.18893433 7.3527771 108.18893433 7.3527771 109.19067383 6.84790039 C111 6 111 6 114 5 C114 4.34 114 3.68 114 3 C118.38461538 0 118.38461538 0 121 0 C120.35230228 3.64756086 118.77220513 6.17273132 116.75 9.25 C114.55093643 12.61829983 112.38774515 15.99168797 110.3125 19.4375 C108.49379145 22.36169806 106.5247677 24.63812054 104 27 C103.443125 27.763125 102.88625 28.52625 102.3125 29.3125 C94.94025372 37.88024568 85.47391827 41.78154686 75.27148438 46.03442383 C72.14852436 47.36195036 69.07101361 48.78557655 65.99414062 50.21630859 C59.74295296 52.67300698 53.91633143 50.25384054 48 48 C48 47.34 48 46.68 48 46 C46.783125 45.62875 45.56625 45.2575 44.3125 44.875 C33.12919901 41.11769444 25.13978456 36.85459277 17.375 27.9375 C16.80523437 27.28652344 16.23546875 26.63554687 15.6484375 25.96484375 C11 20.42417062 11 20.42417062 11 18 C10.34 18 9.68 18 9 18 C8.01515892 16.25318707 7.03733813 14.5024149 6.0625 12.75 C5.24458984 11.28820312 5.24458984 11.28820312 4.41015625 9.796875 C3 7 3 7 2.49609375 4.703125 C2.33238281 4.14109375 2.16867188 3.5790625 2 3 C1.01 2.67 0.02 2.34 -1 2 C-0.67 1.34 -0.34 0.68 0 0 Z M27 24 C27.24715196 27.33655152 28.23073175 28.22536589 30.6875 30.625 C33.58410926 32.90441407 36.41761124 34.06175532 40 35 C39.04370372 31.78336707 38.43966501 30.30082343 35.625 28.375 C34.75875 27.92125 33.8925 27.4675 33 27 C32.278125 26.443125 31.55625 25.88625 30.8125 25.3125 C29.10298833 23.80449673 29.10298833 23.80449673 27 24 Z M90 25 C90 25.66 90 26.32 90 27 C88.88625 27.12375 88.88625 27.12375 87.75 27.25 C84.43395471 28.15437599 83.16468609 29.3714526 81 32 C80.67 32.99 80.34 33.98 80 35 C84.61662448 33.68096443 88.22973959 31.99907078 92 29 C93.41190564 26.39562767 93.41190564 26.39562767 94 24 C91.9254644 23.8509288 91.9254644 23.8509288 90 25 Z " fill="#9BA6E9" transform="translate(165,112)"/>
</svg>
