<svg id="Layer_1" data-name="Layer 1" xmlns="http://www.w3.org/2000/svg" xmlns:xlink="http://www.w3.org/1999/xlink" viewBox="0 0 969.38 397.78"><defs><style>.cls-1{fill:url(#linear-gradient);}.cls-2{fill:url(#linear-gradient-2);}.cls-3{fill:url(#linear-gradient-3);}</style><linearGradient id="linear-gradient" x1="835.05" y1="724.94" x2="835.05" y2="349.99" gradientUnits="userSpaceOnUse"><stop offset="0" stop-color="#78dee7"/><stop offset="0.49" stop-color="#a59ce6"/><stop offset="1" stop-color="#fe78b0"/></linearGradient><linearGradient id="linear-gradient-2" x1="240.71" y1="726.32" x2="240.71" y2="329.05" xlink:href="#linear-gradient"/><linearGradient id="linear-gradient-3" x1="537.93" y1="678.38" x2="537.93" y2="518.52" xlink:href="#linear-gradient"/></defs><path class="cls-1" d="M694.35,707.18A100.59,100.59,0,0,1,653,659.4c18,12.77,36.43,24.21,58,30-14.14-12.35-26.94-25.54-36-42.84,40.49,16.91,82,22.1,127,14.27-6.09-5-11.91-5.32-16.93-7.15-19.25-7-37.58-16.12-56.49-23.91-8.12-3.35-16.11-7-24.17-10.51-1.48-.64-3.12-1.14-2.83-3.2s2.15-2,3.68-2.13c38.66-4.32,73.63-18.4,105.61-40.22a52,52,0,0,0,11.42-10.85c-39.58,7.66-79.44,12-119.54,18A338.89,338.89,0,0,0,806.13,485.7C754.12,514.77,703.3,545.91,648,569c-1.19-3.47.1-4.32,1.45-5.27,30.29-21.26,56-47.37,80.17-75.2,14.79-17,29-34.48,44-51.32,16.83-18.93,34.13-37.37,52.54-54.68,18-16.95,36.1-34.05,57.86-46.44a71.26,71.26,0,0,1,16.92-6.74c6-1.6,10.69.85,13.66,6.12,3.7,6.58,3.93,13.73,2.85,21.06-4.81,32.58-22.55,57.72-46.06,80.39,6.13.47,11.29-3,17.13-2.42,7.89.72,10.25,3.19,7.73,10.72-3.64,10.94-10.86,19.49-18.73,27.68a383.32,383.32,0,0,1-45.09,39.6c15.6-6.91,30-15.82,44.39-24.86,25.4-16,50.14-33.05,77.35-45.95,16.21-7.68,32.78-13.75,51.31-12.58,12.33.77,18.93,8.6,16.59,20.75-4,20.76-15.93,37-29.86,51.94-19.94,21.35-44.27,36.69-71.2,50,7.27,1.5,13.68,1,20,1,3.66,0,7,.78,8.8,3.93,2,3.42,0,6.6-2.17,9.28-6.22,7.66-14.75,12.46-22.93,17.52-24.36,15.08-50.93,25.14-78.62,31.87-13.4,3.25-27,6.66-40.94,8.07,12.29,0,24.57.08,36.86,0,21.41-.16,42.58-3.74,63.89-4.89,17.93-1,36.1-2.64,53.93,1.95,5.12,1.31,10.55,2.91,12.07,8.38,1.83,6.64-2,12.05-7.08,15.74a158,158,0,0,1-31.49,18.28c-23.67,10-48.09,17.32-73.65,20.39.08,1.47,1.27,1.18,1.93,1.61,3.13,2,8.22,2.58,8.16,7.13,0,4.88-4,8.22-8.24,10a149.77,149.77,0,0,1-42.27,11c-11.32,1.17-22.44-1.2-34.07,0,1.52,2.61,3.39,4.86,3.14,7.85C775.71,731.7,722.08,727.47,694.35,707.18Z" transform="translate(-53.15 -328.83)"/><path class="cls-2" d="M227.85,500.18c-13.2-10-24.23-21.65-35.17-33.27-6.14-6.51-11.2-14.15-13.54-23.11-1.57-6,.69-8.72,6.94-9.22,5.24-.42,10.19,1.07,16.13,1-5.17-6-10.53-11.78-15.48-17.93-16.13-20-27.31-42.18-28.85-68.41-.3-4.94,1.17-9.37,3.33-13.64,2.73-5.38,8.29-7.63,14.17-6.07,16.14,4.26,29.3,13.77,41.83,24.16,20.5,17,40.32,34.81,58.44,54.4,19,20.5,37.49,41.35,55.29,62.91,13.17,15.94,26.49,31.89,41.53,46.28C387,531.18,401.76,544.7,417,557.72c3.77,3.21,9.28,4.33,11.24,10C372.49,546.2,322,514.57,269.85,485.85c27.74,38.63,61.68,70.45,103.15,94.78-39.93-5.65-79.71-10.27-119.19-17.82,13.39,14.43,29.84,23.65,46.94,31.53a254.11,254.11,0,0,0,60.44,18.83c3.08.57,6.28.48,9.42.75,1.53.14,3.35,0,3.71,2.1s-1.26,2.57-2.75,3.22c-12.8,5.61-25.53,11.4-38.4,16.84-14.69,6.21-29.56,12-44.23,18.25-5.29,2.26-11.37,2.44-17.1,6.38,45,7.87,87.61,3.32,129.06-14.19-9.26,17-22.15,30.11-35.87,42.78,21.51-5.7,39.73-17.32,57.92-31.37.23,6.46-3,9.85-5.28,13.46a110.33,110.33,0,0,1-39,37.61c-17.22,9.85-35.44,16.66-55.51,17.07-9.44.2-19,.87-28.33-1.36-8.27-2-9.17-4-4.25-12.05-7.42.1-14.56,1.13-21.48.89-15.22-.51-30.62-1.69-44.93-7.95-4.3-1.88-9.14-2.5-12.9-5.71-7.45-6.36-7.14-9.87,1.43-14.32,1.16-.61,2.34-1.17,3.74-1.87-18.14-3.38-35.8-7-53-13-17.54-6.12-34.24-13.53-49.42-24.24a37.53,37.53,0,0,1-3.79-2.81c-4.33-3.94-8.17-8.57-6.29-14.69,1.63-5.33,6.83-7.31,12-8.6,17.83-4.51,36-2.42,54-2,13.21.35,26.39,2.13,39.55,3.65,20.25,2.34,40.52.62,60.84.76-11.36-1.69-22.53-4.26-33.79-6.19-10.09-1.74-19.74-4.75-29.3-7.89-23.81-7.83-46.65-18-67.1-32.76-4.69-3.4-9.82-6.42-12.93-11.64-3.83-6.42-1.47-10.9,6-11.58,5.62-.51,11.53,1.24,18.72-2.17-7.89-4.43-14.55-7.93-21-11.81C104,522.51,80.1,503,63.86,475.44c-4.59-7.78-8.37-16-10.17-24.91C51.1,437.7,58,429.76,71.06,429.09c25.23-1.3,46.38,10.06,67.43,21.36,27.41,14.71,52.74,32.85,79.3,49,8.22,5,17,9.11,25.7,13.3C238.67,508.29,234,503.75,227.85,500.18Z" transform="translate(-53.15 -328.83)"/><path class="cls-3" d="M666.52,573.59c-6.47,10.35-13.09,20.06-18.72,30.31-6.37,11.63-15.13,21.37-24,30.87a92.39,92.39,0,0,1-33.18,22.86q-22.23,9-44.21,18.56c-5,2.16-9.8,3.17-15,.93-16.94-7.31-33.88-14.65-50.88-21.85-16.1-6.82-27.62-19.11-38.71-32C428.7,608,419.79,590,409,573.12c-.62-1-1.18-1.94-.26-3.16,1.64-1.24,2.79,0,4.07.94,30.23,21.18,62.87,37.93,96.57,52.77,9.09,4,18.22,8,24.92,15.88,2,2.29,4.33,3.68,6.79.71,9.73-11.71,24-15.74,37-21.8,29.3-13.66,57.8-28.69,84.52-47,1.38-.94,2.5-3.12,4.55-1.37,1,.89.25,2.06-.61,3.45M495.52,642c-6.27-12.15-18-16.43-29.9-21.63,4.63,14.46,16.9,18.71,28.15,24.13,1.59.76,2.65.27,1.75-2.5m85.1.09c-1.5,2.61-.21,2.76,1.84,2,7-2.6,13.79-5.62,19.42-10.55,2.87-2.52,5.76-5.48,5.87-11C596,625.79,586.6,630.79,580.62,642.12Z" transform="translate(-53.15 -328.83)"/></svg>